<?xml version="1.0" standalone="no"?>
<!DOCTYPE svg PUBLIC "-//W3C//DTD SVG 20010904//EN"
 "http://www.w3.org/TR/2001/REC-SVG-20010904/DTD/svg10.dtd">
<svg version="1.0" xmlns="http://www.w3.org/2000/svg"
 width="300.000000pt" height="450.000000pt" viewBox="0 0 300.000000 450.000000"
 preserveAspectRatio="xMidYMid meet">
<metadata>
Created by potrace 1.10, written by Peter Selinger 2001-2011
</metadata>
<g transform="translate(0.000000,450.000000) scale(0.100000,-0.100000)"
fill="#000000" stroke="none">
<path d="M1477 4103 c-4 -54 -7 -146 -7 -205 0 -100 1 -108 19 -108 11 0 22 8
25 18 9 27 -10 372 -21 383 -7 7 -12 -24 -16 -88z"/>
<path d="M1051 4115 c1 -25 166 -359 181 -369 13 -8 21 -7 28 0 19 19 -102
245 -190 354 -11 14 -19 21 -19 15z"/>
<path d="M1933 4068 c-36 -47 -183 -314 -183 -332 0 -3 9 -10 20 -16 19 -10
24 -4 61 77 22 48 58 130 80 182 37 89 44 118 22 89z"/>
<path d="M770 3872 c0 -11 196 -202 232 -226 28 -18 48 -15 48 9 0 14 -95 95
-200 171 -71 52 -80 57 -80 46z"/>
<path d="M2149 3780 c-46 -32 -106 -79 -134 -104 -47 -42 -49 -45 -33 -62 16
-16 20 -14 85 44 95 85 189 182 176 182 -6 0 -48 -27 -94 -60z"/>
<path d="M1306 3619 c-145 -19 -237 -52 -296 -105 -31 -28 -40 -44 -40 -69 0
-162 581 -244 914 -130 161 55 189 153 65 224 -130 74 -413 109 -643 80z m419
-90 c132 -22 229 -68 210 -100 -42 -67 -474 -104 -696 -59 -116 24 -169 46
-169 72 0 35 125 79 280 98 85 10 285 4 375 -11z m-685 -68 c-6 -12 -8 -26 -5
-31 3 -6 2 -10 -3 -10 -18 0 -21 28 -5 49 19 27 29 21 13 -8z"/>
<path d="M575 3536 c77 -36 229 -86 264 -86 33 0 42 19 17 39 -16 13 -208 58
-281 66 l-50 5 50 -24z"/>
<path d="M2320 3510 c-183 -33 -217 -47 -188 -77 13 -13 22 -12 75 1 60 16
254 83 262 92 8 8 -44 2 -149 -16z"/>
<path d="M725 3240 c-154 -39 -211 -57 -203 -65 10 -10 288 30 361 51 19 6 21
45 2 50 -5 1 -77 -15 -160 -36z"/>
<path d="M2099 3254 c-11 -14 -10 -18 5 -30 21 -15 311 -86 334 -82 19 4 -296
128 -324 128 -1 0 -8 -7 -15 -16z"/>
<path d="M1263 3175 c-14 -10 -24 -31 -29 -60 -4 -28 -13 -49 -24 -55 -28 -15
-118 -207 -126 -268 -5 -40 -19 -73 -53 -125 -26 -40 -59 -106 -75 -148 l-27
-77 20 -108 c12 -60 21 -125 21 -145 0 -20 9 -88 20 -150 11 -63 20 -136 20
-164 0 -27 7 -75 15 -105 20 -74 19 -77 -15 -85 -42 -9 -122 -93 -154 -160
-88 -187 -89 -308 -3 -411 13 -16 32 -54 42 -84 23 -70 75 -124 135 -140 75
-20 185 -8 255 27 117 60 210 167 256 295 12 32 26 58 30 58 11 0 12 6 -11
-75 -11 -38 -23 -97 -26 -131 -6 -58 -9 -63 -40 -78 -52 -24 -61 -54 -41 -134
9 -37 17 -79 17 -94 0 -53 72 -98 158 -98 182 0 336 93 462 279 96 143 167
220 265 286 95 65 103 77 90 142 -7 40 -70 107 -123 132 -21 9 -57 37 -82 63
-58 59 -111 75 -189 60 -29 -7 -57 -9 -61 -7 -12 7 -29 85 -35 160 -5 54 -1
98 19 194 35 168 34 211 -9 322 -59 150 -74 244 -62 388 1 15 -7 30 -25 44
-26 20 -28 20 -72 3 -26 -10 -46 -24 -46 -32 0 -29 -16 -12 -32 34 -16 44 -46
93 -130 214 -18 25 -48 71 -66 101 -48 79 -74 100 -114 95 -26 -4 -38 0 -61
23 -32 32 -62 37 -94 14z m30 -112 c17 -28 25 -11 11 23 -17 40 -13 64 10 64
20 0 49 -57 43 -82 -4 -14 -2 -16 6 -9 9 7 40 -40 113 -167 102 -178 128 -241
164 -392 22 -89 46 -143 61 -138 13 4 13 7 -7 98 -27 129 -75 267 -112 327
-19 32 -43 72 -52 88 -9 17 -28 49 -44 73 -37 59 -41 72 -22 72 9 0 16 4 16 9
0 5 -9 7 -20 4 -15 -4 -23 3 -37 31 -12 26 -14 39 -6 47 8 8 23 -4 53 -42 22
-29 48 -65 56 -81 8 -16 44 -71 79 -123 74 -110 82 -129 61 -151 -20 -19 -20
-25 -1 -18 8 4 15 10 15 15 0 5 4 9 8 9 4 0 18 -44 31 -97 14 -58 41 -133 67
-185 24 -49 51 -112 59 -141 25 -90 27 -97 36 -97 15 0 10 86 -7 137 -15 45
-38 95 -78 171 -39 72 -25 152 30 189 35 23 50 1 24 -36 -15 -21 -17 -35 -11
-76 14 -86 49 -209 96 -335 21 -56 16 -157 -15 -285 -17 -70 -21 -109 -17
-177 2 -48 1 -85 -4 -83 -11 8 -37 93 -45 150 -3 28 -10 55 -15 61 -5 6 -13
35 -18 65 l-9 54 -1 -52 c-2 -78 28 -263 49 -304 11 -20 35 -50 54 -67 l35
-30 -67 -39 c-36 -21 -110 -80 -164 -132 -54 -52 -100 -92 -102 -90 -13 16
-86 150 -86 158 0 6 6 11 13 11 6 1 -5 10 -25 20 -81 43 -163 187 -210 370
-29 109 -30 128 -33 346 l-4 230 -36 110 c-45 132 -57 241 -30 268 22 21 30
15 16 -12 -26 -48 4 -117 46 -106 15 4 22 -5 37 -48 10 -29 29 -73 42 -97 24
-44 48 -152 59 -273 4 -37 13 -72 20 -78 11 -9 13 -6 10 15 -2 19 2 25 11 21
17 -7 17 -11 0 66 -7 35 -19 97 -26 138 -7 41 -24 94 -37 117 -13 23 -38 81
-54 130 -17 48 -44 110 -61 137 -25 41 -29 57 -25 93 5 47 31 85 52 77 18 -7
39 -60 31 -79 -3 -8 -2 -15 3 -15 5 0 25 -39 46 -87 21 -49 51 -116 66 -150
20 -45 24 -63 15 -63 -8 0 -20 -7 -27 -17 -13 -15 -11 -16 16 -10 30 7 30 7 8
-9 -31 -22 -29 -39 2 -18 23 15 24 15 29 -8 3 -12 15 -59 26 -103 12 -44 24
-92 27 -107 3 -15 14 -28 26 -32 29 -7 39 2 27 25 -6 11 -31 89 -54 174 -27
93 -64 195 -94 257 -27 57 -57 128 -67 158 -32 99 -42 113 -81 108 -33 -4 -34
-3 -34 32 0 19 3 46 7 60 7 22 8 21 13 -15 3 -22 9 -46 13 -52z m-68 -60 c-4
-16 -11 -46 -14 -68 -4 -23 -11 -47 -16 -55 -6 -10 -4 -12 11 -6 14 5 12 0 -7
-16 -15 -13 -29 -31 -32 -40 -4 -10 -15 -18 -26 -18 -19 0 -19 2 -7 38 8 20
25 64 38 97 14 33 28 68 31 78 11 29 30 20 22 -10z m50 -251 c6 -21 4 -23 -17
-20 -18 2 -24 10 -26 36 -2 19 0 41 3 50 6 14 10 11 20 -13 7 -16 16 -40 20
-53z m-115 -42 c0 -57 -2 -62 -41 -101 -29 -29 -35 -39 -20 -34 12 3 21 4 21
1 0 -20 -57 -120 -78 -136 l-25 -20 32 0 c17 0 31 -3 31 -7 0 -5 7 -46 15 -92
14 -75 13 -87 0 -108 -18 -27 -17 -28 35 -7 54 22 62 11 14 -18 -37 -22 -37
-23 -13 -28 19 -5 26 -15 33 -53 8 -42 7 -51 -13 -78 l-22 -30 28 3 28 3 12
-90 c22 -170 23 -173 43 -178 12 -3 23 -20 30 -47 6 -22 14 -48 17 -56 3 -9
-12 -31 -43 -59 -37 -34 -44 -45 -29 -45 20 0 88 31 119 55 18 13 18 16 4 32
-9 10 -18 33 -20 51 l-5 33 24 -28 c33 -40 38 -68 16 -91 -10 -10 -31 -36 -46
-56 -23 -30 -34 -36 -65 -36 -35 -1 -36 -2 -18 -15 31 -24 65 -18 97 16 45 48
35 10 -14 -57 -54 -72 -72 -89 -121 -109 -75 -32 -146 4 -146 74 0 85 41 139
75 101 27 -30 38 -24 20 10 -8 16 -15 43 -15 61 0 18 -13 73 -29 123 -19 58
-33 132 -40 204 -6 62 -14 118 -17 124 -4 6 -10 52 -14 102 -4 50 -15 148 -25
217 l-18 126 66 135 c91 187 117 210 117 108z m701 -112 l-9 -33 -1 41 c-1 22
2 44 7 48 12 12 14 -19 3 -56z m-667 -57 c-11 -11 -36 29 -29 46 6 16 9 14 20
-12 7 -16 11 -32 9 -34z m-35 -77 c-9 -11 -8 -14 4 -14 16 0 31 -27 18 -32
-10 -4 -1 -138 9 -138 4 0 13 12 20 28 l12 27 10 -25 c5 -14 7 -71 3 -135 -8
-127 10 -234 71 -435 7 -23 6 -23 -19 7 -27 31 -47 103 -47 169 0 18 -7 53
-15 77 -8 24 -16 65 -16 91 -1 26 -6 49 -11 52 -5 3 -8 23 -6 45 1 29 -4 45
-22 64 -20 21 -22 28 -11 35 12 7 11 18 -3 72 -10 34 -22 69 -26 77 -7 13 -2
31 26 96 7 17 9 15 12 -13 2 -18 -2 -40 -9 -48z m-110 -841 c-8 -10 -24 -29
-37 -43 -74 -79 -132 -194 -132 -260 0 -54 20 -87 66 -106 38 -16 161 -19 184
-4 11 7 6 10 -20 10 -19 0 -43 7 -53 14 -21 16 -9 29 13 15 30 -18 114 -10
168 17 61 30 204 164 184 172 -8 2 -34 -10 -59 -28 l-45 -33 26 42 c27 42 31
65 23 129 -2 18 0 35 4 38 14 9 113 -107 152 -179 21 -40 47 -81 58 -93 25
-26 26 -48 2 -36 -29 15 -42 4 -80 -71 -41 -83 -96 -156 -150 -199 -42 -33
-125 -78 -145 -78 -16 0 42 49 59 50 16 0 133 118 133 134 0 23 -25 47 -46 43
-12 -1 -53 -24 -92 -51 -39 -26 -94 -56 -122 -67 -44 -17 -57 -18 -93 -8 -23
7 -46 16 -51 20 -5 5 -18 3 -29 -2 -24 -13 -33 -5 -58 51 -18 39 -18 42 -1 35
9 -4 46 -9 82 -12 121 -10 256 40 352 130 73 68 108 118 108 151 0 24 -6 19
-59 -47 -101 -127 -236 -197 -380 -197 -122 0 -176 53 -168 163 9 106 102 262
179 300 42 21 43 21 27 0z m31 -44 c0 -6 -16 -33 -35 -58 -35 -49 -52 -111
-42 -153 4 -13 18 -36 33 -51 l27 -29 -26 -25 c-19 -20 -31 -24 -51 -19 -85
21 -87 104 -6 226 73 111 100 141 100 109z m1100 -16 c32 -21 110 -95 110
-105 0 -5 -7 -8 -15 -8 -55 0 -193 -107 -249 -192 -10 -16 -22 -28 -27 -28
-16 0 -49 78 -49 115 0 63 38 116 118 166 24 15 32 28 32 49 0 26 3 28 28 24
15 -3 38 -12 52 -21z m-95 -3 c-3 -5 -25 -18 -48 -28 -62 -28 -112 -89 -126
-153 -11 -49 -10 -56 15 -106 23 -49 25 -57 13 -86 -29 -73 -69 -145 -84 -151
-27 -10 -89 -6 -106 7 -26 19 -59 80 -59 107 -1 21 -2 22 -10 8 -18 -29 -24
-106 -10 -123 11 -13 8 -15 -18 -15 -52 0 -57 17 -34 131 14 70 29 113 48 141
47 67 168 173 245 213 97 51 190 80 174 55z m319 -216 c1 -36 -3 -41 -49 -72
-87 -57 -169 -136 -243 -235 -40 -52 -72 -100 -72 -105 0 -13 -118 -127 -164
-157 -47 -32 -60 -26 -14 6 43 30 47 36 114 159 110 203 215 339 337 433 21
16 37 36 37 45 0 13 6 10 26 -10 19 -18 27 -37 28 -64z m-84 68 c0 -4 -23 -18
-50 -30 -36 -16 -67 -43 -107 -90 -75 -90 -166 -229 -218 -333 -51 -100 -90
-143 -159 -175 -62 -29 -160 -40 -201 -24 -29 12 -27 13 50 27 97 17 169 49
214 95 18 19 68 101 111 182 88 165 138 237 203 290 57 46 157 84 157 58z
m-946 -286 c-9 -24 -127 -118 -179 -142 -98 -46 -165 -41 -220 16 -34 35 -21
39 31 8 74 -44 168 -18 296 82 66 52 81 59 72 36z m451 -152 c-48 -39 -126
-58 -217 -51 -80 7 -97 -1 -55 -25 34 -19 184 -15 225 6 42 22 53 13 21 -15
-32 -28 -77 -46 -152 -60 -114 -22 -138 -63 -62 -107 19 -11 19 -11 -6 -12
-40 0 -65 36 -79 115 -15 84 -12 107 15 111 11 2 70 10 130 18 61 8 128 21
150 30 57 21 64 19 30 -10z"/>
<path d="M1267 2993 c-12 -12 -7 -70 7 -82 11 -10 13 -4 8 36 -5 54 -6 56 -15
46z"/>
<path d="M1310 2510 c-21 -11 -28 -19 -18 -20 25 0 68 18 68 30 0 14 -10 12
-50 -10z"/>
<path d="M1806 2265 c9 -108 15 -145 25 -145 11 0 11 2 -2 97 -13 97 -30 131
-23 48z"/>
<path d="M1716 2233 c18 -230 25 -295 36 -343 l13 -55 3 45 c2 24 -1 80 -7
124 -6 43 -11 105 -11 136 0 54 -14 115 -30 133 -4 5 -6 -13 -4 -40z"/>
<path d="M1577 2194 c-7 -21 8 -192 18 -202 11 -11 11 7 0 113 -7 72 -13 103
-18 89z"/>
<path d="M1671 1908 c-1 -83 12 -138 31 -138 5 0 6 10 2 23 -4 12 -13 63 -20
112 l-12 90 -1 -87z"/>
<path d="M1717 1649 c25 -43 92 -117 93 -102 0 16 -90 133 -102 133 -5 0 -1
-14 9 -31z"/>
<path d="M924 3058 c-95 -91 -169 -176 -162 -183 14 -15 265 208 270 239 7 41
-26 24 -108 -56z"/>
<path d="M1942 3098 c3 -22 185 -184 249 -222 30 -18 31 -18 21 0 -6 11 -62
70 -125 132 -113 111 -152 135 -145 90z"/>
<path d="M1754 3007 c-8 -22 16 -62 89 -153 69 -85 129 -145 108 -109 -6 11
-44 76 -84 145 -69 120 -100 151 -113 117z"/>
</g>
</svg>
